<?xml version="1.0" standalone="no"?>
<!DOCTYPE svg PUBLIC "-//W3C//DTD SVG 20010904//EN"
 "http://www.w3.org/TR/2001/REC-SVG-20010904/DTD/svg10.dtd">
<svg version="1.0" xmlns="http://www.w3.org/2000/svg"
 width="512.000000pt" height="512.000000pt" viewBox="0 0 512.000000 512.000000"
 preserveAspectRatio="xMidYMid meet">
<metadata>
Created by potrace 1.11, written by Peter Selinger 2001-2013
</metadata>
<g transform="translate(0.000000,512.000000) scale(0.100000,-0.100000)"
fill="#000000" stroke="none">
<path d="M343 5108 c-12 -6 -26 -22 -31 -37 -6 -18 54 -726 189 -2246 109
-1221 201 -2234 204 -2252 3 -18 19 -45 34 -61 26 -25 118 -53 887 -267 545
-151 881 -240 919 -243 54 -3 151 22 930 238 826 229 872 243 903 274 23 22
35 45 39 72 3 21 94 1034 202 2249 135 1503 195 2218 189 2236 -5 14 -20 31
-34 38 -34 15 -4399 15 -4431 -1z m3582 -942 c21 -9 37 -24 40 -39 4 -13 -3
-126 -14 -252 -12 -125 -21 -236 -21 -246 0 -18 -30 -19 -1054 -19 -1050 0
-1053 0 -1080 -21 -32 -25 -33 -46 -11 -292 19 -209 20 -213 50 -243 l24 -24
981 0 981 0 26 -26 c22 -22 25 -31 20 -72 -3 -26 -36 -387 -72 -802 -36 -415
-70 -772 -75 -792 -8 -29 -19 -40 -53 -56 -23 -11 -282 -87 -575 -168 l-533
-147 -537 148 c-295 81 -550 155 -567 164 -58 32 -61 49 -94 416 -39 427 -39
437 -5 464 25 20 39 21 240 21 117 0 224 -4 238 -10 45 -17 57 -49 72 -207 7
-81 16 -160 19 -174 13 -60 42 -73 347 -155 l287 -78 273 74 c150 40 285 79
299 86 56 28 61 48 91 364 33 355 32 323 9 351 l-19 24 -936 5 -936 5 -26 27
-27 26 -68 764 c-38 420 -69 784 -69 809 0 48 16 72 55 82 11 2 620 5 1353 6
1137 1 1338 -1 1367 -13z"/>
</g>
</svg>
